HIERARCHY
ROOT hip
{
	OFFSET 0.000000 0.000000 0.000000 
	CHANNELS 6 Xposition Yposition Zposition Xrotation Zrotation Yrotation
	JOINT abdomen
	{
		OFFSET 0.000000 3.402643 0.000000 
		CHANNELS 3 Xrotation Zrotation Yrotation
		JOINT chest
		{
			OFFSET 0.000000 8.438565 -0.680529 
			CHANNELS 3 Xrotation Zrotation Yrotation
			JOINT neck
			{
				OFFSET 0.000000 10.207942 -0.272212 
				CHANNELS 3 Xrotation Zrotation Yrotation
				JOINT head
				{
					OFFSET 0.000000 3.130431 0.000000 
					CHANNELS 3 Xrotation Zrotation Yrotation
					End Site
					{
						OFFSET 0.000000 3.130435 0.000000 
					}
				}
			}
			JOINT lCollar
			{
				OFFSET 3.470700 6.669187 -0.816635 
				CHANNELS 3 Yrotation Zrotation Xrotation
				JOINT lShldr
				{
					OFFSET 3.198488 0.000000 0.000000 
					CHANNELS 3 Zrotation Yrotation Xrotation
					JOINT lForeArm
					{
						OFFSET 10.139888 0.000000 0.000000 
						CHANNELS 3 Yrotation Zrotation Xrotation
						JOINT lHand
						{
							OFFSET 8.370511 0.000000 0.000000 
							CHANNELS 3 Zrotation Yrotation Xrotation
							End Site
							{
								OFFSET 4.083176 0.000000 0.000000 
							}
						}
					}
				}
			}
			JOINT rCollar
			{
				OFFSET -3.470700 6.669187 -0.816635 
				CHANNELS 3 Yrotation Zrotation Xrotation
				JOINT rShldr
				{
					OFFSET -3.198488 0.000000 0.000000 
					CHANNELS 3 Zrotation Yrotation Xrotation
					JOINT rForeArm
					{
						OFFSET -10.139888 0.000000 0.000000 
						CHANNELS 3 Yrotation Zrotation Xrotation
						JOINT rHand
						{
							OFFSET -8.370511 0.000000 0.000000 
							CHANNELS 3 Zrotation Yrotation Xrotation
							End Site
							{
								OFFSET -4.083176 0.000000 0.000000 
							}
						}
					}
				}
			}
		}
	}
	JOINT lThigh
	{
		OFFSET 5.308129 -1.633274 1.361059 
		CHANNELS 3 Xrotation Zrotation Yrotation
		JOINT lShin
		{
			OFFSET -2.041588 -20.007561 0.000000 
			CHANNELS 3 Xrotation Zrotation Yrotation
			JOINT lFoot
			{
				OFFSET 0.000000 -19.190928 -1.224953 
				CHANNELS 3 Xrotation Yrotation Zrotation
				End Site
				{
					OFFSET 0.000000 -2.449906 4.627600 
				}
			}
		}
	}
	JOINT rThigh
	{
		OFFSET -5.308129 -1.633274 1.361059 
		CHANNELS 3 Xrotation Zrotation Yrotation
		JOINT rShin
		{
			OFFSET 2.041588 -20.007561 0.000000 
			CHANNELS 3 Xrotation Zrotation Yrotation
			JOINT rFoot
			{
				OFFSET 0.000000 -19.190928 -1.224953 
				CHANNELS 3 Xrotation Yrotation Zrotation
				End Site
				{
					OFFSET 0.000000 -2.449906 4.627600 
				}
			}
		}
	}
}
MOTION
Frames: 10
Frame Time: 0.011111
28.627508 48.145844 -117.511017 8.557477 -1.680732 -3.136743 20.970522 3.061887 6.388321 -24.752914 0.752944 1.415998 -11.923365 -1.515513 -1.090440 20.237030 4.493422 -1.574837 -7.198545 -2.255300 -0.324897 -67.297592 -24.827047 36.579185 -62.159046 9.405499 13.379930 8.524705 12.647240 -28.870497 5.113256 1.510366 0.237230 69.914246 13.795538 11.483994 50.760193 -7.882024 8.466504 -8.533279 -12.636986 42.377098 -23.598305 8.727678 8.407818 65.629532 -2.094939 -8.585522 -17.149591 -3.183403 -3.894102 -20.511448 1.473972 2.126770 41.797585 4.522088 6.296464 -24.773167 15.420334 9.869848 
28.678667 48.193707 -116.603996 8.441598 -2.148648 -3.349880 21.315748 3.447122 6.854505 -24.772356 0.475299 1.502438 -11.886516 -1.418400 -1.202701 20.105488 4.433954 -1.776744 -7.198545 -2.255300 -0.324897 -67.535080 -23.881559 35.853909 -60.388748 9.297038 12.568219 8.524705 12.647240 -29.817760 5.113256 1.510366 0.237230 69.711830 14.599942 14.230187 52.237854 -8.189865 9.079050 -8.533279 -12.636986 44.252098 -25.619194 9.401217 8.115678 64.848747 -2.183550 -8.531494 -21.260216 1.309130 -2.113354 -18.628389 1.854911 1.980895 40.878597 4.590717 6.211132 -24.901186 15.904182 10.180301 
28.700125 48.231331 -115.762978 8.818860 -2.620293 -2.986078 21.175276 3.910499 6.923648 -24.782217 0.337210 1.482069 -11.768359 -1.131817 -1.279071 19.828102 4.239764 -1.911041 -7.198545 -2.255300 -0.324897 -67.753021 -23.170427 35.305424 -58.525883 9.129526 11.739779 8.524705 12.647240 -30.550182 5.113256 1.510366 0.237230 69.490921 15.481080 15.947516 53.752598 -8.470858 9.700437 -8.533279 -12.636986 44.095852 -28.370800 9.898479 7.253151 63.706970 -2.318958 -8.437578 -20.129595 -2.791704 -3.715305 -17.335205 2.117917 1.384470 39.950111 4.668934 6.070083 -25.199930 16.382891 10.513870 
28.727518 48.219780 -114.862221 8.925957 -2.709279 -3.144225 21.180429 3.743695 7.240265 -24.762564 0.245624 1.585989 -11.583808 -1.125082 -1.319999 19.665274 4.567842 -1.912700 -7.198545 -2.255300 -0.324897 -67.896713 -22.311405 34.840302 -56.774712 8.925707 10.974281 8.524705 12.647240 -31.038464 5.113256 1.510366 0.237230 69.183731 16.167093 18.144016 55.346527 -8.731401 10.372030 -8.533279 -12.636986 44.593895 -30.224628 10.097660 6.962771 62.368725 -2.487363 -8.344601 -20.431032 -4.509480 -4.389582 -15.832097 2.069309 0.846566 39.029533 4.737443 5.983763 -25.168535 17.020325 10.853491 
28.743690 48.221100 -113.938354 8.952934 -2.650438 -3.383274 21.239571 3.387488 7.428502 -24.674559 0.229296 1.675318 -11.634680 -1.260091 -1.339513 19.706747 4.900315 -1.937443 -7.198545 -2.255300 -0.324897 -68.040260 -21.442606 33.865414 -55.133808 8.690954 10.274733 8.524705 12.647240 -31.702524 5.113256 1.510366 0.237230 68.879509 16.912373 20.698019 56.999504 -8.965209 11.083414 -8.533279 -12.636986 45.990383 -31.742586 10.153655 6.859998 60.678177 -2.661532 -8.213446 -21.531149 -4.157952 -4.239370 -14.254127 1.923567 0.484259 38.099247 4.805883 5.866708 -25.352024 17.508522 11.185584 
28.767786 48.297016 -113.021767 9.030561 -2.782234 -3.586520 21.303940 3.370359 7.583717 -24.703785 0.203423 1.716060 -11.763488 -1.413646 -1.340572 19.941776 5.015079 -1.952449 -7.198545 -2.255300 -0.324897 -68.376320 -20.629076 32.382813 -53.245510 8.370111 9.479894 8.524705 12.647240 -32.835339 5.113256 1.510366 0.237230 68.485382 17.589848 22.863943 58.688053 -9.158146 11.826371 -8.533279 -12.636986 46.683743 -33.231136 10.497565 6.825450 58.586441 -2.913700 -8.010085 -22.208820 -3.269203 -3.849322 -12.583995 1.903607 0.352275 37.168785 4.870364 5.737918 -25.326113 18.293734 11.602734 
28.813335 48.378872 -112.098885 9.139032 -3.062370 -3.776288 21.311951 3.565843 7.949771 -24.820898 0.036064 1.795472 -11.743343 -1.464720 -1.301163 20.171907 5.247576 -1.840997 -7.198545 -2.255300 -0.324897 -68.683807 -19.871048 30.880219 -51.019897 7.925128 8.561271 8.524705 12.647240 -34.290417 5.113256 1.510366 0.237230 68.023003 18.005342 24.859177 60.573498 -9.324243 12.668839 -8.533279 -12.636986 47.201317 -34.585487 10.945334 6.661393 56.169060 -3.168428 -7.791891 -22.857126 -3.215516 -3.811479 -10.903243 1.942922 -0.045029 36.137161 4.942976 5.620874 -25.045687 18.990717 11.924024 
28.857565 48.392738 -111.171715 9.216885 -3.229995 -3.996413 21.337275 3.556447 8.357450 -24.898918 -0.149095 1.915775 -11.540893 -1.375530 -1.430829 19.922640 5.257403 -2.061889 -7.198545 -2.255300 -0.324897 -68.781525 -19.154228 29.393190 -48.818058 7.417185 7.674668 8.524705 12.647240 -35.921272 5.113256 1.510366 0.237230 67.669296 18.490641 26.563868 62.586941 -9.428897 13.582844 -8.533279 -12.636986 47.631004 -35.750923 11.210544 6.260245 53.445007 -3.460971 -7.528044 -23.504740 -3.713602 -4.011372 -9.236938 1.904229 -0.666223 34.955826 5.021283 5.481868 -24.757589 19.693693 12.223475 
28.900476 48.373920 -110.243889 9.274073 -3.366635 -4.289796 21.423935 3.427897 8.790043 -24.947618 -0.305071 2.044157 -11.320277 -1.256319 -1.616306 19.463717 5.186799 -2.438216 -7.198545 -2.255300 -0.324897 -68.878662 -18.565590 27.331276 -46.609634 6.842049 6.815005 8.524705 12.647240 -38.284561 5.113256 1.510366 0.237230 67.342979 19.165279 27.934687 64.142952 -9.461909 14.296185 -8.533279 -12.636986 46.918118 -36.852242 11.414961 5.629212 50.510475 -3.751528 -7.252996 -23.856558 -3.261163 -3.795892 -7.462462 1.862817 -1.329698 33.652683 5.115462 5.316497 -24.122974 20.694630 12.582136 
28.945366 48.422112 -109.294289 9.438881 -3.500495 -4.551478 21.275093 3.380840 9.098032 -24.713196 -0.336381 2.142227 -11.404333 -1.047522 -1.554352 19.390261 5.169403 -2.262384 -7.198545 -2.255300 -0.324897 -69.188499 -18.301153 24.035582 -44.272438 6.159269 5.925546 8.524705 12.647240 -41.790413 5.113256 1.510366 0.237230 66.762932 20.030970 29.495581 65.431252 -9.455063 14.893666 -8.533279 -12.636986 46.468899 -38.000122 11.647215 4.955334 47.404926 -4.036512 -6.929200 -23.872593 -1.886196 -3.186510 -5.712276 1.806171 -1.949095 32.188904 5.212378 5.115881 -22.995846 21.539623 12.674497 
